<?xml version="1.0" encoding="utf-8"?>
<!-- Generator: Adobe Illustrator 19.0.0, SVG Export Plug-In . SVG Version: 6.00 Build 0)  -->
<svg version="1.1" id="Layer_1" xmlns="http://www.w3.org/2000/svg" xmlns:xlink="http://www.w3.org/1999/xlink" x="0px" y="0px"
	 viewBox="0 0 560 560" style="enable-background:new 0 0 560 560;" xml:space="preserve">
<style type="text/css">
	.st0{fill:#02C384;}
	.st1{fill:#01BE86;}
	.st2{fill:#11D38C;}
	.st3{fill:#01C07A;}
	.st4{fill:none;stroke:#000000;stroke-width:0.59511;stroke-miterlimit:10;}
	.st5{fill:#0AC397;}
	.st6{fill:#00AA79;}
	.st7{fill:#1FD7A3;}
	.st8{fill:#01C289;}
	.st9{fill:#1DD49E;}
	.st10{fill:#01C178;}
	.st11{fill:#0CC397;}
	.st12{fill:#1FD49D;}
	.st13{fill:#03C27F;}
	.st14{fill:#0ED286;}
	.st15{fill:#23D189;}
	.st16{fill:#1DD28B;}
	.st17{fill:#00D281;}
	.st18{fill:#02D181;}
	.st19{fill:#17D490;}
	.st20{fill:#14D68F;}
	.st21{fill:#22DDB0;}
	.st22{fill:#21DDAD;}
	.st23{fill:#16CBA0;}
	.st24{fill:#15CC9E;}
	.st25{fill:#20DAAB;}
	.st26{fill:#1FDEAB;}
	.st27{fill:#0ED294;}
	.st28{fill:#13C89D;}
	.st29{fill:#009E7C;}
	.st30{fill:#0AC495;}
	.st31{fill:#00A979;}
	.st32{fill:#0CC194;}
	.st33{fill:#0AB08C;}
	.st34{fill:#09C799;}
	.st35{fill:#0EB391;}
	.st36{fill:#00AC7E;}
	.st37{fill:#0DC295;}
	.st38{fill:#01AB7E;}
	.st39{fill:#009D80;}
	.st40{fill:#13C69C;}
	.st41{fill:#018A6E;}
	.st42{fill:#009C81;}
	.st43{fill:#1EAE93;}
	.st44{fill:#11AC8A;}
	.st45{fill:#009C7F;}
	.st46{fill:#008466;}
	.st47{fill:#1FAD93;}
	.st48{fill:#15A88E;}
	.st49{fill:#22AA94;}
	.st50{fill:#209D8B;}
	.st51{fill:#209D8D;}
	.st52{fill:#22988C;}
	.st53{fill:#118182;}
	.st54{fill:#02606C;}
	.st55{fill:#229F8D;}
	.st56{fill:#04D385;}
	.st57{fill:#01D686;}
	.st58{fill:#00D887;}
	.st59{fill:#22DCAD;}
	.st60{fill:#20DA9D;}
	.st61{fill:#00CD8C;}
	.st62{fill:#0BCE92;}
	.st63{fill:#02CD8E;}
	.st64{fill:#00CC8D;}
	.st65{fill:#1FDBA9;}
	.st66{fill:#0ED195;}
	.st67{fill:#0ECF9A;}
	.st68{fill:#0FCEA5;}
	.st69{fill:#06CC9B;}
	.st70{fill:#0ACC97;}
	.st71{fill:#0FCDA7;}
	.st72{fill:#009C7C;}
	.st73{fill:#1ECFA5;}
	.st74{fill:#1DCCA5;}
	.st75{fill:#1ECEA8;}
	.st76{fill:#00CD94;}
	.st77{fill:#01CD9C;}
	.st78{fill:#03CC9E;}
	.st79{fill:#02CD9E;}
	.st80{fill:#09CD9D;}
	.st81{fill:#00CE8E;}
	.st82{fill:#05CD9C;}
	.st83{fill:#01CC9D;}
	.st84{fill:#06CE9D;}
	.st85{fill:#09CD9F;}
	.st86{fill:#1ECCA7;}
	.st87{fill:#1ED2A2;}
	.st88{fill:#1FD3A4;}
	.st89{fill:#1ECCA9;}
	.st90{fill:#0AA989;}
	.st91{fill:#0CCEA9;}
	.st92{fill:#1ED2A3;}
	.st93{fill:#20D1A3;}
	.st94{fill:#11AA8B;}
	.st95{fill:#18B89C;}
	.st96{fill:#0CB890;}
	.st97{fill:#00837B;}
	.st98{fill:#008179;}
	.st99{fill:#20C4A2;}
	.st100{fill:#12A690;}
	.st101{fill:#12AD8E;}
	.st102{fill:#13A68C;}
	.st103{fill:#00867D;}
	.st104{fill:#3491A0;}
	.st105{fill:#1F7689;}
	.st106{fill:#013773;}
	.st107{fill:#016780;}
	.st108{fill:#299EA5;}
	.st109{fill:#299FA1;}
	.st110{fill:#02847C;}
	.st111{fill:#17B899;}
	.st112{fill:#14A98C;}
	.st113{fill:#299F9F;}
	.st114{fill:#00837C;}
	.st115{fill:#209D8F;}
	.st116{fill:#007E77;}
	.st117{fill:#2B9F9F;}
	.st118{fill:#04626E;}
	.st119{fill:#008479;}
	.st120{fill:#227587;}
	.st121{fill:#0EBA92;}
	.st122{fill:#01916D;}
	.st123{fill:#05AE85;}
	.st124{fill:#06A28C;}
	.st125{fill:#00BB84;}
	.st126{fill:#17B795;}
	.st127{fill:#06A388;}
	.st128{fill:#03807C;}
	.st129{fill:#07A584;}
	.st130{fill:#247588;}
	.st131{fill:#118280;}
	.st132{fill:#239D8E;}
	.st133{fill:#00616C;}
</style>
<g id="XMLID_4_">
	<polygon id="XMLID_8_" class="st0" points="166.59746,94.62543 173.73878,116.64452 184.8103,78.18588 170.16812,86.29388 	"/>
	<polygon id="XMLID_10_" class="st1" points="180.34654,133.5367 173.73878,116.64452 184.8103,78.18588 	"/>
	<polygon id="XMLID_11_" class="st2" points="202.66536,51.40323 188.61655,60.10902 184.8103,78.18588 	"/>
	<polygon id="XMLID_12_" class="st3" points="228.55528,38.01191 202.66536,51.40323 220.15741,73.20145 	"/>
	<path id="XMLID_13_" class="st4" d="M220.15741,73.20145"/>
	<polygon id="XMLID_15_" class="st5" points="180.34654,133.5367 219.5623,119.62006 172.54857,161.2778 	"/>
	<polygon id="XMLID_16_" class="st6" points="161.59866,184.42372 172.54857,161.2778 193.97255,189.24799 	"/>
	<polygon id="XMLID_17_" class="st7" points="219.5623,119.62006 193.97255,189.24799 172.54857,161.2778 	"/>
	<polygon id="XMLID_18_" class="st6" points="146.42183,192.45851 161.59866,184.42372 193.97255,189.24799 	"/>
	<polygon id="XMLID_14_" class="st6" points="178.03061,197.18173 161.83658,191.62843 193.97255,189.24799 191.5921,217.21819 	"/>
	<polygon id="XMLID_19_" class="st8" points="220.15741,73.20145 219.5623,119.62006 184.8103,78.18588 220.15741,73.20145 
		202.66536,51.40323 	"/>
	<polygon id="XMLID_20_" class="st9" points="180.34654,133.5367 184.8103,78.18588 219.5623,119.62006 	"/>
	<polygon id="XMLID_21_" class="st10" points="185.00867,77.98751 202.86372,51.20486 220.35577,73.00307 	"/>
	<polygon id="XMLID_9_" class="st11" points="207.78613,236.45901 196.47903,226.14377 191.5921,217.21819 224.32318,200.55508 	"/>
	<polygon id="XMLID_24_" class="st12" points="219.5623,119.62006 271.33691,99.98142 220.15741,73.20145 	"/>
	<polygon id="XMLID_25_" class="st13" points="274.97855,42.47569 271.33691,99.98142 220.15741,73.20145 	"/>
	<polygon id="XMLID_26_" class="st14" points="228.55528,38.01191 274.97855,42.47569 220.15741,73.20145 	"/>
	<polygon id="XMLID_23_" class="st15" points="241.94658,23.72783 254.67381,33.32905 274.97855,42.47569 228.55528,38.01191 	"/>
	<polygon id="XMLID_27_" class="st16" points="311.58148,44.26119 291.94086,40.69017 274.97855,42.47569 303.47287,88.07921 	"/>
	<polygon id="XMLID_29_" class="st17" points="271.33691,99.98142 303.47287,88.07921 274.97855,42.47569 	"/>
	<polygon id="XMLID_30_" class="st12" points="258.8396,158.89735 219.5623,119.62006 271.33691,99.98142 	"/>
	<polygon id="XMLID_31_" class="st18" points="337.81775,54.15684 311.58148,44.26119 303.47287,88.07921 	"/>
	<path id="XMLID_32_" class="st19" d="M360.43198,37.19619l-22.61423,16.96065c0,0,22.78574,36.30281,22.78574,34.51748
		c0-1.78533,10.71198-13.68755,10.71198-13.68755l1.78534-27.97019L360.43198,37.19619z"/>
	<polygon id="XMLID_33_" class="st20" points="303.47287,88.07921 360.60349,88.67432 337.81775,54.15684 	"/>
	<polygon id="XMLID_34_" class="st21" points="326.08707,129.14183 356.43771,105.33741 354.05725,95.22054 360.60349,88.67432 
		303.47287,88.07921 	"/>
	<polygon id="XMLID_28_" class="st19" points="258.8396,158.89735 326.08707,129.14183 303.47287,88.07921 271.33691,99.98142 	"/>
	<path id="XMLID_35_" class="st4" d="M224.32318,200.55508"/>
	<polygon id="XMLID_37_" class="st22" points="380.16977,120.80921 356.43771,105.33741 326.08707,129.14183 372.63171,150.36636 
		382.44327,126.28364 	"/>
	<polygon id="XMLID_38_" class="st23" points="258.8396,158.89735 289.78534,184.48711 326.08707,129.14183 	"/>
	<polygon id="XMLID_39_" class="st24" points="372.63171,150.36636 374.29102,157.70714 390.9541,163.06313 347.51105,189.84309 
		326.08707,129.14183 	"/>
	<polygon id="XMLID_40_" class="st25" points="289.78534,184.48711 347.51105,189.84309 326.08707,129.14183 	"/>
	<polygon id="XMLID_36_" class="st26" points="380.96329,198.76869 390.35901,183.29689 390.9541,163.06313 347.51105,189.84309 	
		"/>
	<polygon id="XMLID_42_" class="st27" points="400.40353,172.18709 398.41986,180.12189 390.35901,183.29689 390.9541,163.06313 
		398.09543,167.2289 	"/>
	<polygon id="XMLID_43_" class="st28" points="289.78534,184.48711 310.01907,242.80794 347.51105,189.84309 	"/>
	<polygon id="XMLID_44_" class="st29" points="375.21057,212.6546 383.14532,214.83667 374.61545,236.65738 347.51105,189.84309 
		380.96329,198.76869 	"/>
	<polygon id="XMLID_41_" class="st30" points="193.97255,189.24799 258.8396,158.89735 219.5623,119.62006 	"/>
	<polygon id="XMLID_45_" class="st31" points="224.32318,200.55508 258.8396,158.89735 193.97255,189.24799 	"/>
	<polygon id="XMLID_46_" class="st32" points="191.5921,217.21819 193.97255,189.24799 224.32318,200.55508 	"/>
	<polygon id="XMLID_47_" class="st33" points="310.01907,242.80794 374.61545,236.65738 347.51105,189.84309 	"/>
	<polygon id="XMLID_48_" class="st34" points="289.78534,184.48711 224.32318,200.55508 258.8396,158.89735 	"/>
	<polygon id="XMLID_49_" class="st35" points="207.78613,236.45901 206.46986,256.49548 265.98093,261.25635 	"/>
	<polygon id="XMLID_50_" class="st36" points="224.32318,200.55508 265.98093,261.25635 207.78613,236.45901 	"/>
	<polygon id="XMLID_51_" class="st37" points="289.78534,184.48711 265.98093,261.25635 224.32318,200.55508 	"/>
	<polygon id="XMLID_52_" class="st38" points="310.01907,242.80794 265.98093,261.25635 289.78534,184.48711 	"/>
	<polygon id="XMLID_53_" class="st39" points="354.58002,294.58148 310.01907,242.80794 374.61545,236.65738 369.25946,249.55145 
		367.14969,268.39767 	"/>
	<polygon id="XMLID_22_" class="st39" points="329.18866,325.32886 346.91592,310.65051 354.58002,294.58148 300.49731,293.39233 	
		"/>
	<polygon id="XMLID_55_" class="st40" points="310.01907,242.80794 300.49731,293.39233 354.58002,294.58148 	"/>
	<polygon id="XMLID_56_" class="st41" points="206.46986,256.49548 244.55693,324.33807 300.49731,293.39233 	"/>
	<polygon id="XMLID_57_" class="st42" points="265.53461,260.81006 300.05099,292.94601 206.02356,256.04916 	"/>
	<polygon id="XMLID_58_" class="st39" points="310.01907,242.80794 265.98093,261.25635 300.49731,293.39233 	"/>
	<polygon id="XMLID_59_" class="st43" points="244.55693,324.33807 185.76704,325.13046 181.47522,298.74832 180.88011,292.79721 
		206.46986,256.49548 	"/>
	<polygon id="XMLID_60_" class="st44" points="312.32718,366.19308 318.35065,351.71313 327.20493,350.91861 329.18866,325.32886 
		300.49731,293.39233 	"/>
	<polygon id="XMLID_61_" class="st45" points="244.55693,324.33807 312.32718,366.19308 300.49731,293.39233 	"/>
	<polygon id="XMLID_62_" class="st46" points="181.00615,353.49741 187.94908,339.21475 185.76704,325.13046 244.55693,324.33807 
		239.79605,373.13712 	"/>
	<polygon id="XMLID_54_" class="st47" points="254.67381,392.77576 239.79605,373.13712 244.55693,324.33807 269.55157,358.25937 	
		"/>
	<polygon id="XMLID_64_" class="st48" points="312.32718,366.19308 269.55157,358.25937 244.55693,324.33807 	"/>
	<polygon id="XMLID_63_" class="st47" points="254.67381,392.77576 268.95645,382.65891 277.88312,381.46866 286.80978,372.54202 
		294.87064,375.71484 302.87775,369.56647 312.32718,366.19308 269.55157,358.25937 	"/>
	<polygon id="XMLID_65_" class="st49" points="171.35835,377.30289 172.0795,359.25015 181.00615,353.49741 239.79605,373.13712 	
		"/>
	<polygon id="XMLID_66_" class="st50" points="215.39653,428.48239 239.79605,373.13712 254.67381,392.77576 243.96182,400.51221 
		241.58139,418.36551 236.74814,423.72043 	"/>
	<polygon id="XMLID_68_" class="st51" points="171.35835,377.30289 215.39653,428.48239 239.79605,373.13712 	"/>
	<polygon id="XMLID_67_" class="st51" points="129.03316,454.6662 118.39352,433.83838 123.74951,415.98508 163.02679,427.8873 	"/>
	<polygon id="XMLID_69_" class="st52" points="215.39653,428.48239 207.58774,434.6308 195.75787,455.26236 177.30945,420.15085 	
		"/>
	<polygon id="XMLID_71_" class="st51" points="171.35835,377.30289 177.30945,420.15085 215.39653,428.48239 	"/>
	<polygon id="XMLID_72_" class="st53" points="123.74951,415.98508 149.33926,397.53665 171.35835,377.30289 177.30945,420.15085 
		163.02679,427.8873 	"/>
	<polygon id="XMLID_70_" class="st54" points="129.03316,454.6662 195.75787,455.26236 177.30945,420.15085 163.02679,427.8873 	"/>
	<polygon id="XMLID_73_" class="st55" points="155.01968,473.31296 136.24683,466.56946 129.03316,454.6662 195.75787,455.26236 	
		"/>
	<polygon id="XMLID_75_" class="st54" points="186.16376,493.54672 162.43169,482.04233 155.01968,473.31296 193.97255,452.88193 
		186.23611,472.52057 	"/>
	<polygon id="XMLID_74_" class="st56" points="366.68063,34.91494 367.27573,29.75731 370.54883,26.78176 373.52438,19.04532 
		383.04617,19.34288 397.50034,25.59261 	"/>
	<polygon id="XMLID_76_" class="st57" points="376.20239,44.03996 366.68063,34.91494 397.50034,25.59261 397.50034,61.29912 
		397.50034,63.08457 	"/>
	<polygon id="XMLID_78_" class="st58" points="374.61545,78.358 376.20239,44.03996 397.50034,63.08457 	"/>
	<polygon id="XMLID_77_" class="st57" points="421.13324,45.23019 411.78299,38.08993 397.50034,25.59261 397.50034,63.08457 	"/>
	<polygon id="XMLID_79_" class="st59" points="374.61545,78.358 402.2612,99.98142 380.76489,117.83366 368.3399,108.90807 	"/>
	<polygon id="XMLID_81_" class="st60" points="359.7377,94.82272 364.17413,89.26943 374.61545,78.358 368.3399,108.90807 
		359.34091,105.73309 	"/>
	<polygon id="XMLID_82_" class="st57" points="424.70389,66.65416 421.13324,45.23019 397.50034,63.08457 	"/>
	<polygon id="XMLID_83_" class="st61" points="434.32483,74.58897 424.70389,66.65416 402.2612,99.98142 412.97321,105.33741 
		421.89984,91.05476 	"/>
	<polygon id="XMLID_80_" class="st62" points="380.76489,117.83366 384.53394,125.37172 396.03943,126.76032 402.2612,99.98142 	"/>
	<polygon id="XMLID_84_" class="st63" points="374.61545,78.358 397.50034,63.08457 424.70389,66.65416 402.2612,99.98142 	"/>
	<polygon id="XMLID_85_" class="st64" points="396.03943,126.76032 408.33835,118.03203 412.97321,105.33741 402.2612,99.98142 	"/>
	<polygon id="XMLID_86_" class="st65" points="375.60727,149.17615 382.1535,135.4886 386.12088,130.33098 399.28564,130.33205 
		392.14432,157.11203 379.37634,154.73051 	"/>
	<polygon id="XMLID_87_" class="st64" points="435.91183,76.96941 427.25586,88.67432 416.54385,105.33741 437.96783,116.0494 
		440.34827,89.86454 440.94339,82.72321 	"/>
	<polygon id="XMLID_89_" class="st64" points="421.30475,141.04404 437.96783,116.0494 416.54385,105.33741 	"/>
	<polygon id="XMLID_88_" class="st64" points="400.60193,128.54565 408.73508,121.99944 416.54385,105.33741 421.30475,141.04404 	
		"/>
	<polygon id="XMLID_90_" class="st66" points="392.14432,157.11203 421.30475,141.04404 400.60193,128.54565 399.28564,130.33205 	
		"/>
	<polygon id="XMLID_91_" class="st67" points="400.47589,183.29689 403.15387,175.56046 403.15387,167.82401 422.49496,168.41913 	
		"/>
	<polygon id="XMLID_93_" class="st68" points="392.14432,157.11203 399.58322,161.2778 403.15387,167.82401 422.49496,168.41913 
		421.30475,141.04404 	"/>
	<polygon id="XMLID_92_" class="st69" points="437.96783,116.0494 440.27594,142.82831 442.45804,162.46695 421.30475,141.04404 	
		"/>
	<polygon id="XMLID_95_" class="st70" points="422.49496,168.41913 442.45804,162.46695 421.30475,141.04404 	"/>
	<polygon id="XMLID_96_" class="st71" points="400.47589,183.29689 417.43652,200.55508 421.82751,189.84203 423.21613,185.47787 
		426.66074,182.10666 	"/>
	<polygon id="XMLID_97_" class="st71" points="422.49496,168.41913 426.66074,182.10666 400.47589,183.29689 	"/>
	<polygon id="XMLID_98_" class="st71" points="442.45804,162.46695 426.66074,182.10666 422.49496,168.41913 	"/>
	<polygon id="XMLID_99_" class="st71" points="440.4743,188.65181 443.6214,183.29689 443.32382,173.77512 442.45804,162.46695 
		426.66074,182.10666 430.52896,181.214 435.5874,182.99933 	"/>
	<polygon id="XMLID_94_" class="st72" points="379.77304,209.87741 386.78833,195.49664 395.11987,217.21819 386.49078,213.05241 	
		"/>
	<polygon id="XMLID_100_" class="st73" points="413.27075,217.21819 414.16342,208.88663 417.43652,200.55508 401.07098,201.15019 	
		"/>
	<polygon id="XMLID_102_" class="st74" points="395.11987,217.21819 400.77344,219.30107 407.91476,219.30107 413.27075,217.21819 
		401.07098,201.15019 	"/>
	<polygon id="XMLID_103_" class="st75" points="386.78833,195.49664 401.07098,201.15019 395.11987,217.21819 	"/>
	<polygon id="XMLID_101_" class="st66" points="400.47589,183.29689 392.73944,185.37978 386.78833,195.49664 401.07098,201.15019 	
		"/>
	<polygon id="XMLID_105_" class="st71" points="417.43652,200.55508 400.47589,183.29689 401.07098,201.15019 	"/>
	<polygon id="XMLID_104_" class="st64" points="444.21649,85.99632 441.53851,116.34695 452.37653,108.3119 451.95294,100.57653 	
		"/>
	<polygon id="XMLID_106_" class="st64" points="468.61603,110.99096 452.37653,108.3119 441.53851,116.34695 442.43115,126.76139 	
		"/>
	<polygon id="XMLID_108_" class="st76" points="493.1416,110.09723 479.03046,132.41493 468.61603,110.99096 	"/>
	<path id="XMLID_107_" class="st77" d="M505.51288,126.76139c-0.89267-0.89267-10.41443-11.60465-10.41443-11.60465
		l-1.95685-5.05951l-14.11115,22.3177L505.51288,126.76139z"/>
	<polygon id="XMLID_110_" class="st78" points="442.43115,126.76139 479.03046,132.41493 468.61603,110.99096 	"/>
	<polygon id="XMLID_111_" class="st71" points="445.2352,187.46159 446.8945,183.29689 445.40671,163.36069 462.66492,183.29689 
		450.76273,188.35532 	"/>
	<polygon id="XMLID_109_" class="st79" points="512.35663,151.75603 511.46399,139.85382 505.51288,126.76139 489.14734,145.80493 	
		"/>
	<path id="XMLID_113_" class="st80" d="M531.22864,168.41805l-8.45758-6.54514c0,0-6.84375-5.65355-8.034-5.95111
		c-1.19019-0.29755-2.38043-4.16577-2.38043-4.16577l-4.76086,20.53131L531.22864,168.41805z"/>
	<polygon id="XMLID_112_" class="st80" points="531.9953,183.59444 507.59576,172.28734 531.22864,168.41805 530.20996,174.07268 	
		"/>
	<polygon id="XMLID_115_" class="st77" points="489.14734,145.80493 479.03046,132.41493 505.51288,126.76139 	"/>
	<polygon id="XMLID_116_" class="st81" points="443.6214,149.3756 461.4747,141.04404 442.43115,126.76139 	"/>
	<polygon id="XMLID_117_" class="st80" points="445.40671,163.36069 467.42581,161.87291 443.6214,149.3756 	"/>
	<polygon id="XMLID_118_" class="st71" points="462.66492,183.29689 467.42581,161.87291 445.40671,163.36069 	"/>
	<polygon id="XMLID_119_" class="st82" points="461.4747,141.04404 467.42581,161.87291 443.6214,149.3756 	"/>
	<polygon id="XMLID_120_" class="st83" points="479.03046,132.41493 461.4747,141.04404 442.43115,126.76139 	"/>
	<polygon id="XMLID_114_" class="st84" points="467.42581,161.87291 489.14734,145.80493 479.03046,132.41493 461.4747,141.04404 	
		"/>
	<polygon id="XMLID_121_" class="st85" points="485.306,178.53493 467.42581,161.87291 462.66492,183.29689 472.7818,178.83356 	"/>
	<polygon id="XMLID_122_" class="st80" points="507.59576,172.28734 485.306,178.53493 500.15689,180.32133 512.65417,187.46266 	
		"/>
	<polygon id="XMLID_123_" class="st80" points="521.87842,193.41376 512.65417,187.46266 507.59576,172.28734 531.9953,183.59444 	
		"/>
	<polygon id="XMLID_124_" class="st80" points="528.72217,194.00888 531.22864,189.24692 531.9953,183.59444 521.87842,193.41376 	
		"/>
	<polygon id="XMLID_126_" class="st80" points="507.59576,172.28734 467.42581,161.87291 485.306,178.53493 	"/>
	<polygon id="XMLID_127_" class="st80" points="489.14734,145.80493 507.59576,172.28734 512.35663,151.75603 	"/>
	<polygon id="XMLID_128_" class="st80" points="467.42581,161.87291 489.14734,145.80493 507.59576,172.28734 	"/>
	<polygon id="XMLID_125_" class="st86" points="386.51767,217.01874 374.24423,247.21547 369.65616,269.38846 413.52545,238.28792 	
		"/>
	<polygon id="XMLID_129_" class="st86" points="415.8764,221.58125 413.52545,238.28792 386.51767,217.01874 400.00681,223.76332 	
		"/>
	<polygon id="XMLID_130_" class="st87" points="433.33301,185.67625 423.21613,185.47787 419.84384,203.13283 444.77188,234.71689 	
		"/>
	<polygon id="XMLID_131_" class="st88" points="415.8764,221.58125 419.84384,203.13283 444.77188,234.71689 413.52545,238.28792 	
		"/>
	<polygon id="XMLID_132_" class="st89" points="369.65616,269.38846 401.02689,304.35178 347.04196,316.40219 358.15067,294.58148 	
		"/>
	<polygon id="XMLID_134_" class="st86" points="413.52545,238.28792 401.02689,304.35178 369.65616,269.38846 	"/>
	<polygon id="XMLID_135_" class="st86" points="444.77188,234.71689 474.23279,285.60391 413.52545,238.28792 	"/>
	<polygon id="XMLID_136_" class="st90" points="401.02689,304.35178 474.23279,285.60391 413.52545,238.28792 	"/>
	<polygon id="XMLID_137_" class="st91" points="433.33301,185.67625 439.08569,192.02409 451.58304,192.02409 466.198,186.50812 
		444.77188,234.71689 	"/>
	<polygon id="XMLID_138_" class="st80" points="517.04517,194.20618 497.44443,182.04434 481.37485,181.1516 492.08789,216.86179 
		504.4487,203.82712 	"/>
	<polygon id="XMLID_139_" class="st92" points="517.54114,216.02689 504.4487,203.82712 492.08789,216.86179 509.50714,237.74843 
		513.97046,220.19266 	"/>
	<polygon id="XMLID_140_" class="st93" points="444.77188,234.71689 492.08789,216.86179 466.198,186.50812 	"/>
	<polygon id="XMLID_141_" class="st85" points="481.37485,181.1516 466.198,186.50812 492.08789,216.86179 	"/>
	<polygon id="XMLID_142_" class="st94" points="474.23279,285.60391 492.08789,216.86179 444.77188,234.71689 	"/>
	<polygon id="XMLID_133_" class="st95" points="496.4147,290.71326 474.23279,285.60391 492.08789,216.86179 513.37537,271.96729 	
		"/>
	<polygon id="XMLID_143_" class="st96" points="518.13623,261.55283 509.50714,237.74843 492.08789,216.86179 513.37537,271.96729 	
		"/>
	<polygon id="XMLID_145_" class="st97" points="328.39517,375.91324 317.48483,364.8045 322.64246,355.87784 329.58539,353.29904 
		334.96301,346.31128 	"/>
	<polygon id="XMLID_144_" class="st98" points="358.17465,360.59534 344.78333,368.63013 328.39517,375.91324 334.96301,346.31128 	
		"/>
	<polygon id="XMLID_146_" class="st99" points="347.04196,316.40219 334.96301,346.31128 332.28476,337.38373 333.17752,330.24167 	
		"/>
	<polygon id="XMLID_148_" class="st100" points="358.17465,360.59534 347.04196,316.40219 334.96301,346.31128 	"/>
	<polygon id="XMLID_149_" class="st101" points="401.02689,304.35178 358.17465,360.59534 347.04196,316.40219 	"/>
	<polygon id="XMLID_151_" class="st94" points="474.23279,285.60391 465.46896,308.07065 496.4147,290.71326 	"/>
	<polygon id="XMLID_147_" class="st94" points="418.18042,317.94061 401.02689,304.35178 441.68729,314.36996 422.49496,316.45285 	
		"/>
	<polygon id="XMLID_152_" class="st94" points="465.46896,308.07065 441.83606,293.83865 474.23279,285.60391 	"/>
	<polygon id="XMLID_150_" class="st94" points="441.68729,314.36996 441.83606,293.83865 465.46896,308.07065 453.29193,312.7334 	
		"/>
	<polygon id="XMLID_154_" class="st86" points="401.02689,304.35178 441.83606,293.83865 441.68729,314.36996 	"/>
	<polygon id="XMLID_155_" class="st89" points="358.17465,360.59534 386.9371,343.38159 404.64166,327.4624 418.18042,317.94061 
		401.02689,304.35178 	"/>
	<polygon id="XMLID_156_" class="st102" points="333.55283,378.88879 348.10617,371.9469 367.74481,360.04471 377.98773,393.76657 
		358.94418,391.58447 	"/>
	<polygon id="XMLID_157_" class="st94" points="398.09543,338.0256 414.16342,368.97134 367.74481,360.04471 	"/>
	<polygon id="XMLID_158_" class="st94" points="377.98773,393.76657 414.16342,368.97134 367.74481,360.04471 	"/>
	<polygon id="XMLID_159_" class="st103" points="423.09009,401.70242 377.98773,393.76657 414.16342,368.97134 	"/>
	<polygon id="XMLID_153_" class="st94" points="435.51505,403.08994 423.09009,401.70242 414.16342,368.97134 446.8945,370.75668 	
		"/>
	<polygon id="XMLID_160_" class="st94" points="445.70428,318.98209 446.8945,370.75668 410.59274,327.31363 423.09009,318.98209 	
		"/>
	<polygon id="XMLID_161_" class="st94" points="414.16342,368.97134 410.59274,327.31363 398.09543,338.0256 	"/>
	<polygon id="XMLID_163_" class="st89" points="446.8945,370.75668 410.59274,327.31363 414.16342,368.97134 	"/>
	<polygon id="XMLID_162_" class="st94" points="494.50333,298.74832 474.86469,330.88428 502.23978,338.0256 499.68781,320.17123 	
		"/>
	<polygon id="XMLID_164_" class="st94" points="445.70428,318.98209 464.7478,312.43585 494.50333,298.74832 474.86469,330.88428 	
		"/>
	<polygon id="XMLID_166_" class="st94" points="471.29404,364.80557 446.8945,370.75668 445.70428,318.98209 	"/>
	<polygon id="XMLID_165_" class="st94" points="474.86469,330.88428 471.29404,364.80557 470.10379,389.8002 446.8945,370.75668 	
		"/>
	<polygon id="XMLID_168_" class="st94" points="445.70428,318.98209 474.86469,330.88428 462.36737,348.73758 	"/>
	<polygon id="XMLID_167_" class="st95" points="490.93268,380.27844 470.10379,389.8002 474.86469,330.88428 502.23978,338.0256 
		504.02509,350.52292 496.4147,370.75562 	"/>
	<polygon id="XMLID_169_" class="st94" points="435.51505,403.08994 450.98792,398.52744 470.10379,389.8002 446.8945,370.75668 	
		"/>
	<polygon id="XMLID_170_" class="st104" points="266.9996,532.03052 279.39777,515.96259 313.58975,483.82767 318.35065,487.39835 
		320.13596,495.13477 314.60846,499.29947 310.14514,503.46524 305.25821,511.20276 292.76089,514.17828 277.41406,525.18677 	"/>
	<polygon id="XMLID_171_" class="st105" points="323.11151,490.96899 317.88156,481.8429 335.60883,469.54501 342.75015,476.09125 
		336.79907,481.44724 336.32999,486.50461 	"/>
	<polygon id="XMLID_172_" class="st106" points="356.8613,484.71927 342.75015,476.09125 367.14969,468.94992 365.36435,478.47168 	
		"/>
	<polygon id="XMLID_174_" class="st107" points="361.7937,454.07214 367.14969,468.94992 345.72571,463.5939 	"/>
	<polygon id="XMLID_173_" class="st105" points="335.60883,469.54501 345.72571,463.5939 367.14969,468.94992 342.75015,476.09125 	
		"/>
	<polygon id="XMLID_176_" class="st104" points="376.07635,444.55038 379.47549,457.04663 371.91058,462.99881 367.14969,468.94992 
		361.7937,454.07214 	"/>
	<polygon id="XMLID_175_" class="st108" points="390.9541,433.83838 376.07635,444.55038 379.47549,457.04663 391.97281,440.68109 	
		"/>
	<polygon id="XMLID_178_" class="st109" points="393.75815,455.85641 391.97281,440.68109 436.01099,432.94464 431.84521,439.19333 
		411.78299,444.55038 403.45142,445.14548 398.09543,452.2868 	"/>
	<polygon id="XMLID_177_" class="st110" points="390.9541,433.83838 423.68518,415.38995 436.01099,432.94464 391.97281,440.68109 	
		"/>
	<polygon id="XMLID_179_" class="st111" points="487.95712,385.03934 459.98694,398.13177 438.56296,407.05841 444.51404,426.10196 
		468.91357,409.43887 480.04916,400.51114 	"/>
	<polygon id="XMLID_180_" class="st112" points="423.68518,415.38995 438.56296,407.05841 444.51404,426.10196 436.01099,432.94464 
			"/>
	<polygon id="XMLID_182_" class="st113" points="433.9281,405.47037 409.40253,418.36551 387.38345,432.64816 378.45679,396.94153 
		401.66611,400.51221 	"/>
	<polygon id="XMLID_183_" class="st114" points="339.7746,425.50684 378.45679,396.94153 387.38345,432.64816 	"/>
	<path id="XMLID_184_" class="st115" d="M258.8396,392.77576c1.78531,1.19025,44.63327,38.68219,44.63327,38.68219
		l-59.18661-7.53915l2.05602-12.69461l4.16577-9.52176L258.8396,392.77576z"/>
	<polygon id="XMLID_185_" class="st54" points="195.09041,513.97888 193.97255,502.27609 189.33771,493.34836 190.99699,471.92548 
		243.96182,466.56946 	"/>
	<polygon id="XMLID_181_" class="st54" points="196.77658,515.06989 201.23991,512.987 212.42097,523.70007 224.91829,532.62671 
		255.26892,504.06143 195.09041,513.97888 	"/>
	<polygon id="XMLID_187_" class="st54" points="243.96182,466.56946 255.26892,504.06143 195.09041,513.97888 	"/>
	<polygon id="XMLID_188_" class="st104" points="303.47287,431.45795 243.96182,466.56946 255.26892,504.06143 	"/>
	<polygon id="XMLID_189_" class="st54" points="244.28625,423.91879 243.96182,466.56946 303.47287,431.45795 	"/>
	<polygon id="XMLID_190_" class="st116" points="339.7746,425.50684 303.47287,431.45795 329.65775,468.3548 	"/>
	<polygon id="XMLID_186_" class="st109" points="387.08591,432.64816 339.47705,425.50684 329.36017,468.3548 359.71082,451.69171 	
		"/>
	<polygon id="XMLID_192_" class="st117" points="314.90601,369.36703 297.0527,378.88879 339.7746,425.50684 348.8273,390.39426 
		327.20493,378.88879 	"/>
	<polygon id="XMLID_193_" class="st116" points="303.47287,431.45795 297.0527,378.88879 339.7746,425.50684 	"/>
	<polygon id="XMLID_194_" class="st118" points="258.8396,392.77576 272.52713,386.82468 280.26355,388.60999 284.42935,379.68335 
		294.5462,379.68335 297.0527,378.88879 303.47287,431.45795 	"/>
	<polygon id="XMLID_191_" class="st119" points="339.7746,425.50684 348.8273,390.39426 362.71326,395.55188 378.45679,396.94153 	
		"/>
	<polygon id="XMLID_196_" class="st104" points="255.26892,504.06143 305.25821,489.18365 321.9213,473.11569 329.65775,468.3548 
		303.47287,431.45795 	"/>
	<polygon id="XMLID_195_" class="st54" points="190.99699,471.92548 203.62035,448.71509 209.17474,437.60635 233.17747,426.89435 
		244.28625,423.91879 243.96182,466.56946 	"/>
	<polygon id="XMLID_198_" class="st120" points="257.1803,540.95721 242.1765,540.95825 224.91829,532.62671 255.26892,504.06143 
		305.25821,489.18365 277.28802,511.20276 260.15585,532.03052 	"/>
	<polygon id="XMLID_197_" class="st121" points="145.17349,193.41376 148.74416,195.7942 155.81313,193.80943 167.51701,197.77684 
		175.05505,199.16542 185.04588,212.45729 192.78232,223.76439 146.36371,251.13948 	"/>
	<polygon id="XMLID_200_" class="st122" points="174.92902,294.58255 199.92365,260.66125 203.49431,249.94926 203.62035,241.61664 
		204.01707,236.45901 197.54321,232.09595 194.6937,228.52422 192.78232,223.76439 146.36371,251.13948 	"/>
	<polygon id="XMLID_201_" class="st123" points="171.08768,355.28275 179.6899,349.3327 182.66545,338.0256 181.47522,317.19675 
		175.45177,297.55704 174.92902,294.58255 100.5402,316.00653 	"/>
	<polygon id="XMLID_202_" class="st124" points="146.36371,251.13948 100.5402,316.00653 174.92902,294.58255 	"/>
	<polygon id="XMLID_203_" class="st125" points="77.33089,232.69106 146.36371,251.13948 145.17349,193.41376 120.77396,203.53064 
		95.77932,217.21819 	"/>
	<polygon id="XMLID_199_" class="st126" points="46.98026,280.89499 60.07269,258.28079 77.33089,232.69106 146.36371,251.13948 	
		"/>
	<polygon id="XMLID_205_" class="st127" points="100.5402,316.00653 46.98026,280.89499 146.36371,251.13948 	"/>
	<polygon id="XMLID_206_" class="st128" points="59.82461,344.22684 100.5402,316.00653 46.98026,280.89499 44.00471,298.1532 
		48.76559,318.98209 	"/>
	<polygon id="XMLID_207_" class="st129" points="88.63799,393.966 171.08768,355.28275 100.5402,316.00653 	"/>
	<polygon id="XMLID_208_" class="st128" points="59.82461,344.22684 74.35534,363.02023 83.03624,376.36606 88.63799,393.966 
		100.5402,316.00653 	"/>
	<path id="XMLID_209_" class="st130" d="M98.21301,517.42133c-0.64836-2.64789-4.81413-28.83276-4.81413-28.83276l6.54621-31.54086
		l38.68218,58.91592h-35.70663L98.21301,517.42133z"/>
	<polygon id="XMLID_210_" class="st51" points="88.63799,393.966 117.92445,420.14978 126.12995,408.24863 139.22238,400.51221 
		168.11212,375.51648 167.78769,363.61536 171.08768,355.28275 	"/>
	<polygon id="XMLID_211_" class="st131" points="99.94509,457.0477 128.51039,461.21347 120.30489,443.3591 116.01308,427.8873 
		117.92445,420.14978 88.63799,393.966 101.13531,436.21884 	"/>
	<polygon id="XMLID_212_" class="st132" points="138.62727,515.96362 154.10014,477.28146 144.90282,472.12274 136.84193,470.14014 
		129.70062,464.18903 128.51039,461.21347 99.94509,457.0477 	"/>
	<polygon id="XMLID_213_" class="st133" points="191.32143,515.36743 170.76324,515.96362 138.62727,515.96362 154.10014,477.28146 
		161.24147,487.39835 175.52412,493.34943 186.95726,497.3158 	"/>
</g>
</svg>
