<?xml version="1.0" encoding="utf-8"?>
<!-- Generator: Adobe Illustrator 19.0.0, SVG Export Plug-In . SVG Version: 6.00 Build 0)  -->
<svg version="1.1" id="Layer_1" xmlns="http://www.w3.org/2000/svg" xmlns:xlink="http://www.w3.org/1999/xlink" x="0px" y="0px"
	 viewBox="0 0 560 560" style="enable-background:new 0 0 560 560;" xml:space="preserve">
<style type="text/css">
	.st0{opacity:0.25;fill:#52FF90;}
	.st1{opacity:0.7;fill:#00DF96;}
	.st2{fill:#F4F4F4;}
</style>
<g id="XMLID_4_">
	<path id="XMLID_3_" class="st0" d="M559.83148,555.40393H0.73034c-0.18727-7.63434-0.37453-15.26862-0.5618-22.90289
		C10.9751,525.74786,28.31559,516.43402,51,511c77.24118-18.50296,115.1078,32.25238,206.24716,36.62585
		c18.5455,0.88995,38.90784-1.48322,38.90793-1.48322C319.40976,544.40625,339.754,541.35461,360,537.5
		c56.15768-10.69171,63.16724-18.34784,87.5-21.5c25.4729-3.2998,62.7803-0.73743,111.88202,27.6731
		C559.5318,547.58337,559.68164,551.49365,559.83148,555.40393z"/>
	<path id="XMLID_2_" class="st1" d="M560,559.98584H0v-43.91083c16.11179,7.63678,42.29148,17.97552,78.08988,23.08154
		c83.48998,11.90833,116.85914-19.25665,213.03372-17.56433c89.74771,1.57916,117.20609,29.71259,190.7865,19.39392
		c36.61115-5.13422,62.69794-16.71094,78.0899-24.91113C560,530.71198,560,545.34894,560,559.98584z"/>
	<path id="XMLID_1_" class="st2" d="M560,560h-560c0.03745-13.18268,0.0749-26.36536,0.11236-39.54803
		c9.34853,5.09369,23.32059,11.85352,41.38762,17.55444c23.40936,7.38666,44.40614,10.23389,64.23035,11.35352
		C173.99284,553.21527,196.14478,535.61182,278,535.5c9.15793-0.01251,23.25867-0.00061,42,1.5
		c34.22781,2.7406,47.10672,7.49811,78.85446,11.76703c10.64697,1.43164,38.45578,5.12573,70.92081,4.61804
		c19.69531-0.30798,52.23138-2.23999,90.16852-11.6181C559.96252,547.84467,559.98126,553.92236,560,560z"/>
</g>
</svg>
